<mxfile host="d2915f48-7dd1-4c04-8594-2b11e65fc02e" modified="2020-07-15T00:27:47.928Z" agent="5.0 (Windows NT 10.0; Win64; x64) AppleWebKit/537.36 (KHTML, like Gecko) Code/1.47.0 Chrome/78.0.3904.130 Electron/7.3.2 Safari/537.36" etag="O9Jp3jZRW4euQfcf9sZW" version="13.1.3">
    <diagram id="6hGFLwfOUW9BJ-s0fimq" name="Page-1">
        <mxGraphModel dx="756" dy="432" grid="1" gridSize="10" guides="1" tooltips="1" connect="1" arrows="1" fold="1" page="1" pageScale="1" pageWidth="827" pageHeight="1169" math="0" shadow="0">
            <root>
                <mxCell id="0"/>
                <mxCell id="1" parent="0"/>
                <mxCell id="9" value="" style="edgeStyle=orthogonalEdgeStyle;rounded=0;orthogonalLoop=1;jettySize=auto;html=1;strokeColor=#000000;strokeWidth=3;exitX=0.5;exitY=1;exitDx=0;exitDy=0;" parent="1" source="6" target="11" edge="1">
                    <mxGeometry relative="1" as="geometry">
                        <Array as="points"/>
                    </mxGeometry>
                </mxCell>
                <mxCell id="2" value="" style="rounded=0;whiteSpace=wrap;html=1;fillColor=none;strokeColor=#000000;strokeWidth=3;dashed=1;" parent="1" vertex="1">
                    <mxGeometry x="180" y="240" width="400" height="180" as="geometry"/>
                </mxCell>
                <mxCell id="8" value="" style="rounded=0;whiteSpace=wrap;html=1;fillColor=none;strokeColor=#000000;strokeWidth=3;dashed=1;" parent="1" vertex="1">
                    <mxGeometry x="180" y="500" width="400" height="180" as="geometry"/>
                </mxCell>
                <mxCell id="7" value="" style="edgeStyle=orthogonalEdgeStyle;rounded=0;orthogonalLoop=1;jettySize=auto;html=1;strokeColor=#000000;strokeWidth=3;" parent="1" source="5" target="6" edge="1">
                    <mxGeometry relative="1" as="geometry"/>
                </mxCell>
                <mxCell id="5" value="&lt;font color=&quot;#000000&quot; style=&quot;font-size: 18px&quot;&gt;&lt;b&gt;VSCode&lt;/b&gt;&lt;/font&gt;" style="rounded=0;whiteSpace=wrap;html=1;strokeColor=#000000;strokeWidth=3;fillColor=none;" parent="1" vertex="1">
                    <mxGeometry x="221" y="300" width="120" height="60" as="geometry"/>
                </mxCell>
                <mxCell id="6" value="&lt;font style=&quot;font-size: 18px&quot; color=&quot;#000000&quot;&gt;&lt;b&gt;Language Server&lt;/b&gt;&lt;/font&gt;" style="rounded=0;whiteSpace=wrap;html=1;strokeColor=#000000;strokeWidth=3;fillColor=none;" parent="1" vertex="1">
                    <mxGeometry x="421" y="300" width="139" height="60" as="geometry"/>
                </mxCell>
                <mxCell id="38" style="edgeStyle=orthogonalEdgeStyle;rounded=0;orthogonalLoop=1;jettySize=auto;html=1;exitX=0.5;exitY=1;exitDx=0;exitDy=0;strokeColor=#000000;strokeWidth=3;" parent="1" source="11" target="33" edge="1">
                    <mxGeometry relative="1" as="geometry">
                        <Array as="points">
                            <mxPoint x="491" y="750"/>
                            <mxPoint x="491" y="750"/>
                        </Array>
                    </mxGeometry>
                </mxCell>
                <mxCell id="11" value="&lt;b style=&quot;color: rgb(0 , 0 , 0)&quot;&gt;&lt;font style=&quot;font-size: 18px&quot;&gt;Server&lt;/font&gt;&lt;/b&gt;" style="rounded=0;whiteSpace=wrap;html=1;strokeColor=#000000;strokeWidth=3;fillColor=none;" parent="1" vertex="1">
                    <mxGeometry x="430.5" y="560" width="120" height="60" as="geometry"/>
                </mxCell>
                <mxCell id="12" value="&lt;b style=&quot;color: rgb(0 , 0 , 0) ; font-size: 15px&quot;&gt;Client&lt;/b&gt;" style="text;html=1;strokeColor=none;fillColor=none;align=center;verticalAlign=middle;whiteSpace=wrap;rounded=0;" parent="1" vertex="1">
                    <mxGeometry x="580" y="300" width="110" height="50" as="geometry"/>
                </mxCell>
                <mxCell id="14" value="&lt;b style=&quot;color: rgb(0 , 0 , 0) ; font-size: 15px&quot;&gt;Server&lt;/b&gt;" style="text;html=1;strokeColor=none;fillColor=none;align=center;verticalAlign=middle;whiteSpace=wrap;rounded=0;" parent="1" vertex="1">
                    <mxGeometry x="580" y="565" width="110" height="50" as="geometry"/>
                </mxCell>
                <mxCell id="30" value="" style="rounded=0;whiteSpace=wrap;html=1;fillColor=none;strokeColor=#000000;strokeWidth=3;dashed=1;" parent="1" vertex="1">
                    <mxGeometry x="180" y="740" width="410" height="180" as="geometry"/>
                </mxCell>
                <mxCell id="32" value="&lt;font color=&quot;#000000&quot; style=&quot;font-size: 18px&quot;&gt;&lt;b&gt;VSCode&lt;/b&gt;&lt;/font&gt;" style="rounded=0;whiteSpace=wrap;html=1;strokeColor=#000000;strokeWidth=3;fillColor=none;" parent="1" vertex="1">
                    <mxGeometry x="231" y="800" width="120" height="60" as="geometry"/>
                </mxCell>
                <mxCell id="36" style="edgeStyle=orthogonalEdgeStyle;rounded=0;orthogonalLoop=1;jettySize=auto;html=1;exitX=0;exitY=0.5;exitDx=0;exitDy=0;strokeColor=#000000;strokeWidth=3;" parent="1" source="33" target="32" edge="1">
                    <mxGeometry relative="1" as="geometry"/>
                </mxCell>
                <mxCell id="33" value="&lt;font style=&quot;font-size: 18px&quot; color=&quot;#000000&quot;&gt;&lt;b&gt;Language Server&lt;/b&gt;&lt;/font&gt;" style="rounded=0;whiteSpace=wrap;html=1;strokeColor=#000000;strokeWidth=3;fillColor=none;" parent="1" vertex="1">
                    <mxGeometry x="431" y="800" width="139" height="60" as="geometry"/>
                </mxCell>
                <mxCell id="34" value="&lt;b style=&quot;color: rgb(0 , 0 , 0) ; font-size: 15px&quot;&gt;Client&lt;/b&gt;" style="text;html=1;strokeColor=none;fillColor=none;align=center;verticalAlign=middle;whiteSpace=wrap;rounded=0;" parent="1" vertex="1">
                    <mxGeometry x="590" y="800" width="110" height="50" as="geometry"/>
                </mxCell>
            </root>
        </mxGraphModel>
    </diagram>
</mxfile>